<svg width="160" height="28" viewBox="0 0 160 28" fill="none" xmlns="http://www.w3.org/2000/svg">
<path d="M14 0L10.5 10.5H0L8.75 17.5L5.25 28L14 21L22.75 28L19.25 17.5L28 10.5H17.5L14 0Z" fill="#FECB00"/>
<path d="M47 0L43.5 10.5H33L41.75 17.5L38.25 28L47 21L55.75 28L52.25 17.5L61 10.5H50.5L47 0Z" fill="#FECB00"/>
<path d="M80 0L76.5 10.5H66L74.75 17.5L71.25 28L80 21L88.75 28L85.25 17.5L94 10.5H83.5L80 0Z" fill="#FECB00"/>
<path d="M113 0L109.5 10.5H99L107.75 17.5L104.25 28L113 21L121.75 28L118.25 17.5L127 10.5H116.5L113 0Z" fill="#FECB00"/>
<path d="M146 0L142.5 10.5H132L140.75 17.5L137.25 28L146 21L154.75 28L151.25 17.5L160 10.5H149.5L146 0Z" fill="#FECB00"/>
</svg>
