<svg width="44" height="38" viewBox="0 0 44 38" fill="none" xmlns="http://www.w3.org/2000/svg">
<path fill-rule="evenodd" clip-rule="evenodd" d="M11 19C11 18.6851 11.1449 18.383 11.4027 18.1603C11.6606 17.9376 12.0103 17.8125 12.375 17.8125H28.3057L22.4015 12.7158C22.1433 12.4928 21.9983 12.1904 21.9983 11.875C21.9983 11.5597 22.1433 11.2573 22.4015 11.0343C22.6597 10.8113 23.0099 10.686 23.375 10.686C23.7401 10.686 24.0903 10.8113 24.3485 11.0343L32.5985 18.1593C32.7265 18.2696 32.8281 18.4006 32.8975 18.5449C32.9668 18.6892 33.0025 18.8438 33.0025 19C33.0025 19.1562 32.9668 19.3109 32.8975 19.4552C32.8281 19.5994 32.7265 19.7305 32.5985 19.8408L24.3485 26.9658C24.0903 27.1888 23.7401 27.314 23.375 27.314C23.0099 27.314 22.6597 27.1888 22.4015 26.9658C22.1433 26.7428 21.9983 26.4404 21.9983 26.125C21.9983 25.8097 22.1433 25.5073 22.4015 25.2843L28.3057 20.1875H12.375C12.0103 20.1875 11.6606 20.0624 11.4027 19.8397C11.1449 19.617 11 19.315 11 19Z" fill="white"/>
</svg>
