<svg width="40" height="41" viewBox="0 0 40 41" fill="none" xmlns="http://www.w3.org/2000/svg">
<path fill-rule="evenodd" clip-rule="evenodd" d="M10 20.5C10 20.1685 10.1317 19.8505 10.3661 19.6161C10.6005 19.3817 10.9185 19.25 11.25 19.25H25.7325L20.365 13.885C20.1303 13.6503 19.9984 13.3319 19.9984 13C19.9984 12.6681 20.1303 12.3497 20.365 12.115C20.5997 11.8803 20.9181 11.7484 21.25 11.7484C21.5819 11.7484 21.9003 11.8803 22.135 12.115L29.635 19.615C29.7514 19.7311 29.8438 19.869 29.9068 20.0209C29.9698 20.1728 30.0022 20.3356 30.0022 20.5C30.0022 20.6644 29.9698 20.8272 29.9068 20.9791C29.8438 21.1309 29.7514 21.2689 29.635 21.385L22.135 28.885C21.9003 29.1197 21.5819 29.2516 21.25 29.2516C20.9181 29.2516 20.5997 29.1197 20.365 28.885C20.1303 28.6503 19.9984 28.3319 19.9984 28C19.9984 27.6681 20.1303 27.3497 20.365 27.115L25.7325 21.75H11.25C10.9185 21.75 10.6005 21.6183 10.3661 21.3839C10.1317 21.1495 10 20.8315 10 20.5Z" fill="black"/>
</svg>
