<svg width="24" height="25" viewBox="0 0 24 25" fill="none" xmlns="http://www.w3.org/2000/svg">
<path d="M11 14.5C12.6569 14.5 14 13.1569 14 11.5C14 9.84315 12.6569 8.5 11 8.5C9.34315 8.5 8 9.84315 8 11.5C8 13.1569 9.34315 14.5 11 14.5ZM3 6.75C3 4.95507 4.45507 3.5 6.25 3.5H17.75C19.5449 3.5 21 4.95507 21 6.75V18.25C21 20.0449 19.5449 21.5 17.75 21.5H6.25C4.45507 21.5 3 20.0449 3 18.25V6.75ZM11 16C11.9719 16 12.8718 15.6919 13.6074 15.1681L16.2197 17.7803C16.5126 18.0732 16.9874 18.0732 17.2803 17.7803C17.5732 17.4874 17.5732 17.0126 17.2803 16.7197L14.6681 14.1074C15.1919 13.3718 15.5 12.4719 15.5 11.5C15.5 9.01472 13.4853 7 11 7C8.51472 7 6.5 9.01472 6.5 11.5C6.5 13.9853 8.51472 16 11 16Z" fill="#212121"/>
</svg>
